<?xml version="1.0" encoding="UTF-8"?>
<svg xmlns="http://www.w3.org/2000/svg" xmlns:xlink="http://www.w3.org/1999/xlink" viewBox="0 0 5000 3000">
  <defs>
    <style>
      .cls-1 {
        fill: #4d4d4d;
      }

      .cls-2 {
        fill: #fff;
      }

      .cls-3 {
        fill: #c69c6d;
      }

      .cls-4 {
        fill: none;
      }

      .cls-5 {
        fill: #f2f2f2;
      }

      .cls-6 {
        fill: #ffb8b8;
      }

      .cls-7 {
        fill: #fef6e4;
      }

      .cls-8 {
        fill: #ff8383;
      }

      .cls-9 {
        fill: #a67c52;
      }

      .cls-10 {
        fill: #ccc;
      }

      .cls-11 {
        fill: #b3b3b3;
      }

      .cls-12 {
        clip-path: url(#clippath);
      }
    </style>
    <clipPath id="clippath">
      <rect class="cls-4" x="206.33" y="290.59" width="4587.33" height="2085.84"/>
    </clipPath>
  </defs>
  <g id="Background">
    <rect id="White" class="cls-7" width="5000" height="3000"/>
    <g>
      <path d="M1944.87,872.96c0-4-.38-7.97-1.15-11.91-.77-3.93-1.15-8.04-1.15-12.3,0-3.73-.07-7.43-.19-11.12-.13-3.67.06-7.49.57-11.45.51-4.22.83-8.16.96-11.81.13-3.65-.19-7.18-.96-10.59-.51-2.71-.9-5.74-1.15-9.1-.26-3.35.13-6.72,1.15-10.1.77-2.46,2.11-4.97,4.02-7.53,1.92-2.55,3.77-3.14,5.56-1.77,1.79,1.38,2.88,3.39,3.26,6.02.38,2.64.7,5.11.96,7.4.77,7.15,1.15,14.65,1.15,22.52,0,7.87-.52,15.88-1.54,24.04-.77,7.26-.96,14.34-.58,21.24.38,6.91.44,13.88.19,20.92,0,16.27,0,32.53,0,48.8,0,3.74-.13,7.59-.38,11.56-.26,3.98-.26,7.91,0,11.8.25,1.76.32,3.34.19,4.72-.13,1.39.83,1.92,2.88,1.59,1.54-.37,3.08-.88,4.62-1.52,1.54-.64,3.08-1.27,4.62-1.9,3.34-1.1,6.75-2.34,10.22-3.73,3.48-1.39,6.89-2.34,10.25-2.85,3.35-1.04,6.59-2.29,9.69-3.75,2.84-1.35,4.4-2.2,4.66-2.57.25-.36.39-2.01.39-4.95-.52-12.07-.78-24.04-.78-35.91,0-11.86-.26-23.7-.78-35.51-1.04-11.87-1.36-23.81-.97-35.83.39-12.01.45-24.1.19-36.27,0-5.33-.33-10.48-.97-15.43-.65-4.95-.58-10.24.19-15.87.5-3.92,2.26-7.26,5.27-9.99,3.01-2.73,5.4-2.15,7.16,1.73,1.03,2.29,1.49,4.85,1.36,7.7-.13,2.85-.19,5.74-.19,8.67,0,2.14.19,4.27.58,6.38.39,2.13.45,4.3.19,6.53-.52,2.86-.97,5.56-1.36,8.1-.39,2.54-.46,5.24-.19,8.07,0,2.4.13,4.75.39,7.06.26,2.31.39,4.66.39,7.06-.26,5.97-.19,11.54.19,16.73.39,5.19.32,10.68-.19,16.47,0,2.67.19,5.13.58,7.38.39,2.26.58,4.72.58,7.38,0,2.67-.39,5.34-1.17,8.03-.78,2.69-1.17,5.37-1.17,8.03,0,6.4.45,12.43,1.36,18.1.91,5.67,1.62,11.47,2.14,17.41.26,5.78.19,11.6-.19,17.47-.39,5.88-.58,11.61-.58,17.21,0,6.14.06,12.25.19,18.33.13,6.09-.07,12.16-.58,18.21-.52,5.79-.65,11.24-.39,16.34.26,5.11.64,10.36,1.17,15.77.52,4.35.52,9.01,0,14-.52,4.99-.52,9.93,0,14.8.26,2.57.13,5.49-.37,8.74-.51,3.26-2.52,5.52-6.03,6.83-.26-1.5-.63-2.16-1.13-1.98-.5.19-1-.03-1.5-.64-1.01-.95-1.63-1.99-1.88-3.09-.25-1.1-.5-2.27-.75-3.52-.78-2.91-1.23-6.07-1.36-9.49-.13-3.41-.19-6.99-.19-10.73,0-6.93-.07-13.64-.19-20.13-.13-6.48.06-13.29.58-20.42.25-3.03.39-6.15.39-9.35,0-3.2,0-6.26,0-9.2,0-1.6-.07-3.17-.19-4.73-.13-1.55-.19-3.39-.19-5.53-.26-2.83-.58-4.24-.97-4.23-.39.02-2.01.43-4.85,1.25-3.62,1.39-7.24,2.73-10.85,4.01-3.62,1.29-7.48,2.62-11.59,4.01-3.09.98-6.24,1.73-9.44,2.25-3.21.52-6.35,1.3-9.42,2.32,0,7.74,0,15.47,0,23.2,0,7.74.13,15.55.38,23.44,0,3.74-.13,7.32-.38,10.76-.26,3.45-.13,6.92.38,10.44.51,2.72.83,5.39.96,8,.13,2.62.32,5.34.58,8.16.25,1.23.44,3.48.58,6.76.13,3.28,0,6.67-.38,10.16-.38,3.5-1.29,6.68-2.69,9.53-1.41,2.86-3.65,4.4-6.72,4.65-2.05.07-3.45-1.12-4.22-3.59-.77-2.47-1.28-5.45-1.53-8.94-.26-3.49-.32-6.92-.19-10.32.13-3.39.19-5.88.19-7.48,0-14.66.38-29.43,1.15-44.3.77-14.86.63-29.4-.38-43.63-1.02-14.76-1.21-30.01-.57-45.75.63-15.74,1.34-31.51,2.11-47.31Z"/>
      <path d="M2080.63,739.11c-1.32.41-2.76.87-4.34,1.36-1.58.5-3.15.87-4.73,1.1,0,2.4-.14,4.18-.39,5.33-.53,4.97-.98,9.85-1.38,14.64-.39,4.79-.59,9.46-.59,13.99.26,4.45.72,8.71,1.38,12.76.65,4.06,1.11,8.18,1.38,12.36,0,.8,0,2.4,0,4.8,0,2.4,0,4.8,0,7.2,0,2.4.13,4.5.39,6.27.26,1.79.65,2.59,1.18,2.42,5.25-2.2,10.18-4.07,14.79-5.62,4.6-1.54,9.54-2.83,14.83-3.85,2.11-.62,4.68-1.5,7.72-2.65,3.03-1.14,4.96-.48,5.75,1.96.53,1.99,0,4-1.59,6.05-1.59,2.05-3.31,3.61-5.15,4.68-1.58,1-3.24,1.61-4.95,1.84-1.72.24-3.5.63-5.34,1.18-2.11.63-4.02,1.27-5.73,1.92-1.72.66-3.62,1.43-5.73,2.34-4.61,1.95-9.21,3.91-13.8,5.91-2.1.67-3.15,1.41-3.15,2.2,0,.8.13,2.1.39,3.87v5.6c.52,3.57.72,7.44.59,11.61-.14,4.18-.33,8.44-.59,12.79-.26,8.35-.2,16.73.2,25.14.39,8.41.33,16.96-.2,25.66-.53,8.71-.79,17.32-.79,25.85,0,8.54.13,17.03.39,25.47.52,8.9,1.05,17.8,1.57,26.7.26,4.19.06,8.32-.59,12.39-.66,4.08-1.25,8.34-1.77,12.77,4.72-1.52,9.51-3.29,14.39-5.33,4.86-2.04,9.67-4.03,14.42-5.98,4.48-1.86,9.36-3.62,14.65-5.27,5.29-1.64,9.78-1.49,13.5.42,2.12,1.02,2.98,2.32,2.58,3.89-.4,1.58-1.33,3.1-2.78,4.56-1.46,1.47-3.18,2.81-5.16,4.03-1.99,1.22-3.51,1.98-4.56,2.28-10.85,4.4-21.27,7.76-31.26,10.04-3.42.52-7.5,1.52-12.22,3.03-4.73,1.5-8.53,1.68-11.41.48-3.67-1.2-5.44-4.14-5.3-8.85.13-4.71.45-9.15.98-13.33,0-5.6.26-11.35.79-17.26.52-5.9.79-11.92.79-18.06.26-5.42-.07-10.58-.98-15.48-.92-4.9-1.51-9.96-1.77-15.21-.53-5.96-.59-11.94-.2-17.93.39-5.99.59-12.06.59-18.2,0-5.33,0-10.8,0-16.4,0-5.6.26-11.15.79-16.66.52-12.7.26-24.89-.79-36.54-1.05-11.65-.66-24.05,1.18-37.19.52-5.77.52-11.37,0-16.8-.53-5.43-1.05-10.85-1.57-16.28-.53-5.42-.79-10.94-.79-16.54,0-5.6.79-11.32,2.36-17.18.79-2.92,1.83-5.07,3.14-6.44,1.31-1.36,2.88-2.41,4.72-3.14,1.83-.73,3.8-1.29,5.9-1.7,2.1-.4,4.2-.94,6.3-1.6,4.99-1.3,10.12-2.68,15.39-4.14,5.27-1.45,10.41-3.04,15.43-4.76,1.05-.3,2.77-.66,5.15-1.08,2.38-.41,4.43-.45,6.15-.14,1.72.32,2.91,1.06,3.57,2.2.66,1.15.06,3.18-1.79,6.1-1.33,1.71-3.18,2.83-5.56,3.36-2.38.54-4.5,1.08-6.34,1.61-2.64,1.3-5.22,2.45-7.72,3.45-2.51,1.01-5.21,1.94-8.11,2.81-4.74,1.03-9.48,2.08-14.21,3.16Z"/>
      <path d="M2178.4,767.18c-3.74-6.32-7.2-12.95-10.4-19.91-3.2-6.95-5.86-14.03-7.99-21.23-1.07-2.13-2.2-4.65-3.39-7.55-1.2-2.9-.47-5.75,2.2-8.55,1.33-1.66,2.93-2.46,4.79-2.39,1.86.08,3.2.82,4,2.22,2.13,2.68,3.73,5.7,4.8,9.04,1.06,3.34,2.13,6.49,3.2,9.44,1.06,3.22,2.4,6.17,4,8.86,1.6,2.69,3.2,5.45,4.81,8.28,3.2,6.2,5.99,12.57,8.35,19.1,2.36,6.54,4.98,13.09,7.84,19.67,2.87-8.63,5.85-17.2,8.91-25.71,3.06-8.51,6.47-17.02,10.23-25.52,2.14-4.44,3.82-8.9,5.03-13.41,1.21-4.5,2.48-9.02,3.82-13.56.53-2.51,1.47-5.35,2.82-8.55,1.34-3.19,3.76-4.86,7.25-4.99,3.23-.07,4.77,1.78,4.64,5.53-.14,3.76-1.08,8.07-2.82,12.93-1.75,4.87-3.7,9.64-5.84,14.31-2.15,4.68-3.63,7.9-4.43,9.66-2.96,7.78-5.51,15.49-7.65,23.12-2.15,7.63-4.56,15.46-7.24,23.48-.8,2.84-1.81,5.77-3.02,8.83-1.21,3.05-2.61,5.95-4.22,8.69.26,2.61.26,5.28,0,8-.27,2.73-.67,5.48-1.21,8.26-.54,5.18-.67,10.14-.4,14.89.26,4.74.26,9.54,0,14.4-.27,5.66-.14,11.3.4,16.91.53,5.62.53,11.29,0,17-.27,5.66-.47,11.24-.6,16.73-.14,5.5-.2,11.04-.2,16.64-.27,6.2-.27,11.93,0,17.2.26,5.28.13,10.91-.4,16.89-.54,5.45-.67,10.81-.4,16.09.26,5.28.4,10.58.4,15.91,0,3.47.46,6.84,1.41,10.1.94,3.27.87,6.48-.2,9.64-.27,1.4-.99,2.61-2.17,3.66-1.17,1.05-2.47,1.87-3.89,2.44-1.42.58-2.77.81-4.06.69-1.29-.11-2.2-.77-2.73-1.99-1.34-2.63-1.6-5.77-.8-9.42.8-3.64.93-7.14.4-10.49-1.34-5.03-1.67-10.43-1-16.18.66-5.75,1.27-11.48,1.8-17.2.26-3.52.2-6.71-.2-9.56-.4-2.84-.87-5.67-1.4-8.49-.54-2.54-.6-5-.2-7.36.4-2.35.86-4.92,1.4-7.71.53-2.52.46-4.9-.2-7.15-.67-2.25-1.27-4.65-1.8-7.2-.27-2.34-.07-4.85.6-7.53.66-2.68,1-5.22,1-7.62,0-3.2-.34-6.26-1-9.18-.67-2.91-1-5.84-1-8.77.26-3.26.4-6.42.4-9.49,0-3.06,0-6.06,0-9,.53-4.92.6-9.74.2-14.44-.4-4.71-.6-9.6-.6-14.67-.54-6.01-.14-11.97,1.17-17.86-1.59-1.51-2.84-3.16-3.78-4.95-.94-1.79-1.94-3.62-3.01-5.51-1.34-4.22-2.47-8.56-3.4-13.02-.94-4.44-2.34-8.59-4.2-12.42Z"/>
      <path d="M2231,1019.07c.26-.32,1.01-1.27,2.22-2.83,1.21-1.57,2.42-3.47,3.63-5.7,1.21-2.23,2.15-4.61,2.82-7.13.67-2.53.6-4.78-.2-6.76,0,.53-.47.75-1.41.67-.94-.09-1.95-.3-3.02-.62-1.08-.32-2.15-.65-3.22-.98-1.08-.32-1.61-.62-1.61-.89-2.69-1.87-4.03-4.94-4.03-9.21,0-2.4.74-4.75,2.21-7.04,1.47-2.29,3.28-4.18,5.44-5.66,2.15-1.48,4.36-2.44,6.65-2.87,2.28-.43,4.5-.3,6.66.37,1.34.29,2.42,1.03,3.23,2.21.81,1.19,1.48,2.4,2.02,3.64.26,1.29.47,2.59.61,3.89.13,1.31.47,2.72,1.01,4.22.54,2.31.47,5.12-.2,8.44-.68,3.32-1.68,6.7-3.03,10.14-1.35,3.44-3.03,6.68-5.04,9.72-2.02,3.03-3.97,5.27-5.85,6.69-1.35.79-2.56,1.41-3.63,1.89-1.08.47-2.29,1.1-3.63,1.9-1.35.79-2.69,1.25-4.03,1.39-1.35.13-2.69.19-4.03.2,1.07-1.01,2.08-1.95,3.02-2.8.94-.85,2.08-1.81,3.42-2.87Z"/>
      <path d="M2447.51,664.08c2.45-.09,4.35.53,5.72,1.85,1.36,1.32,2.04,2.95,2.04,4.86,0,1.91-.61,3.71-1.84,5.4-1.22,1.68-2.93,2.84-5.1,3.46-4.63,1.51-9.26,1.9-13.88,1.18-4.63-.71-9.12-1.08-13.47-1.11,1.63,6.31,2.38,12.87,2.24,19.68-.14,6.81-.48,13.69-1.02,20.66-.55,6.17-.89,12.12-1.02,17.86-.14,5.75-.34,11.69-.61,17.83,0,11.74.06,23.4.2,34.99.13,11.59.06,23.26-.2,35.01-.55,12.03-.55,23.77,0,35.2.54,11.44.68,23.16.41,35.18-.27,4.82-.27,9.75,0,14.8.27,5.05.68,9.96,1.22,14.73.54,5.31.68,10.56.41,15.78-.27,5.22-.68,10.78-1.22,16.67,0,1.34-.21,3.15-.63,5.44-.42,2.29-1.12,4.46-2.1,6.52-.98,2.06-2.24,3.53-3.78,4.42-1.54.89-3.57.48-6.08-1.22-3.3-2.72-4.74-6.68-4.33-11.91.41-5.23.88-9.86,1.43-13.9.82-5.39,1.08-10.87.82-16.45-.27-5.58-.14-11.45.41-17.63.54-5.37.68-10.84.41-16.43-.27-5.58-.41-11.04-.41-16.37.27-12.02.41-23.89.41-35.63,0-11.73-.27-23.44-.82-35.15-.55-11.16-.34-22.31.61-33.44.95-11.13,1.15-22.28.61-33.44,0-4.8-.34-9.84-1.02-15.13-.68-5.29-1.22-10.52-1.63-15.69-.41-5.17-.55-10.36-.41-15.57.13-5.21.88-10.26,2.24-15.15-5.98.8-11.96,1.63-17.94,2.5-2.18.44-4.62.84-7.34,1.2-2.72.37-4.89-.18-6.52-1.65-2.18-1.73-2.99-3.38-2.44-4.95.54-1.56,1.63-2.9,3.26-4.01,1.63-1.11,3.46-2.02,5.5-2.74,2.04-.72,3.73-1.14,5.09-1.25,10.05-.27,20.18-1.18,30.38-2.73,10.2-1.53,20.34-2.75,30.41-3.67Z"/>
      <path d="M2561.07,973.22c-3.54-.15-6.27-2.39-8.17-6.73-1.91-4.33-3.27-9.32-4.08-14.95-.82-5.63-1.37-11.11-1.63-16.46-.27-5.34-.55-9.08-.82-11.23-.27-4.27-.55-8.42-.82-12.43-.27-4.01-.82-8.16-1.63-12.45-.55-2.95-1.09-5.7-1.63-8.25-.55-2.55-1.09-5.3-1.63-8.25-.55-2.15-.68-4.15-.41-6.01.27-1.85.27-3.85,0-6-7.08,1.13-14.09,2.05-21.04,2.76-6.95.71-14.1,1.2-21.45,1.47-2.73.27-4.36.55-4.9.82-.55.27-1.09,1.74-1.63,4.41-.27,1.34-.48,2.67-.61,4-.14,1.34-.2,2.67-.2,4-.82,3.21-1.37,6.55-1.63,10.01-.27,3.47-.68,6.81-1.23,10.01-.55,5.87-1.09,11.68-1.63,17.42-.55,5.74-1.09,11.41-1.63,17.02,0,1.87-.14,4.2-.41,7-.27,2.8-.68,5.75-1.23,8.81-.55,3.08-1.37,5.82-2.45,8.23-1.09,2.42-2.59,4.18-4.49,5.27-2.45,1.11-4.29.81-5.51-.89-1.23-1.71-1.98-3.96-2.25-6.75-.27-2.79-.34-5.59-.2-8.4.13-2.8.34-4.74.61-5.81,1.09-5.36,2.18-10.65,3.27-15.87,1.09-5.22,1.77-10.5,2.04-15.84.27-3.21.27-6.54,0-10-.27-3.46.27-6.67,1.63-9.63,1.09-2.95,1.7-6.03,1.84-9.23.13-3.2.47-6.41,1.02-9.62.54-6.67,1.49-13.09,2.86-19.24,1.36-6.15,2.45-12.56,3.27-19.24,1.63-11.22,3.61-22.37,5.92-33.45,2.31-11.08,4.15-22.49,5.52-34.23,1.36-12,2.79-24.07,4.29-36.21,1.49-12.13,3.33-24.33,5.52-36.59.82-4.53,1.23-9.19,1.23-13.99,0-4.8.68-9.46,2.04-13.99,1.36-3.72,3.33-6.51,5.92-8.35,2.59-1.84,5.11-.74,7.56,3.3,2.45,4.84,4.09,9.87,4.9,15.09.82,5.22,1.49,10.37,2.04,15.44.54,4.28,1.23,8.63,2.04,13.04.82,4.42,1.49,8.77,2.04,13.05,1.09,11.23,2.38,22.33,3.88,33.3,1.49,10.98,3.2,22.09,5.11,33.34.82,5.62,1.56,11.32,2.25,17.07.68,5.76,1.43,11.58,2.25,17.47.54,5.62,1.43,11.12,2.65,16.49,1.23,5.38,2.51,11.03,3.88,16.94,2.45,1.69,2.99,3.85,1.63,6.46.54,2.95,1.09,5.91,1.63,8.87.54,2.96,1.02,5.78,1.43,8.46.41,2.69.75,5.5,1.02,8.44.54,4.82.68,9.63.41,14.42-.27,4.79,0,9.74.82,14.84.27,1.61,1.16,5.32,2.65,11.12,1.49,5.8,2.72,11.86,3.67,18.17.95,6.31,1.15,11.85.61,16.63-.55,4.77-2.59,7.07-6.12,6.92ZM2502.65,859.9c4.63-.52,9.12-.82,13.48-.91,4.35-.08,8.58-.34,12.66-.8,2.18-.22,4.22-.31,6.13-.26,1.9.05,2.72-.99,2.45-3.14,0-3.47,0-6.93,0-10.4-.55-4.01-1.43-7.97-2.66-11.87-1.22-3.89-2.11-7.85-2.65-11.86-.55-3.47-1.09-6.96-1.63-10.44-.55-3.47-1.09-6.95-1.63-10.43-.55-4.01-.89-8.15-1.02-12.42-.14-4.27-.61-8.27-1.43-12.03-1.09-3.75-1.78-7.36-2.04-10.84-.28-3.47-.41-7.07-.41-10.81,0-8-.89-15.75-2.66-23.24-1.78-7.49-3.2-15.11-4.29-22.86-.82,6.93-1.5,13.78-2.04,20.58-.55,6.79-1.23,13.39-2.04,19.78-.27,3.47-.89,6.66-1.84,9.58-.96,2.93-1.7,5.86-2.25,8.78-.27,6.4-.54,12.8-.82,19.2-.28,3.2-.48,6.47-.61,9.8-.14,3.34-.48,6.47-1.02,9.39-.82,2.93-1.84,5.79-3.06,8.59-1.23,2.8-2.25,5.67-3.06,8.6-2.18,6.67-3.47,13.27-3.88,19.8-.41,6.54-1.16,12.87-2.25,19.01,1.63-.27,3.13-.47,4.49-.61,1.36-.13,2.72-.2,4.09-.2Z"/>
      <path d="M2711.64,677.91c3.24-.31,5.4,1.97,6.48,6.8,1.08,4.84,1.55,10.38,1.42,16.62-.14,6.25-.54,12.38-1.21,18.41-.68,6.03-1.01,9.98-1.01,11.84,0,6.14-.07,12.19-.2,18.17-.14,5.98.06,12.21.61,18.7.27,5.38,0,10.67-.81,15.87-.81,5.21-.95,10.65-.41,16.34.54,6.48.61,12.96.2,19.43-.4,6.47-.61,12.77-.61,18.91,0,6.14,0,12.2,0,18.2,0,6-.14,12.05-.41,18.14-.27,11.7-1.21,23.08-2.83,34.16-1.62,11.09-2.16,22.67-1.62,34.75.26,5.38.67,10.7,1.21,15.99.54,5.28.67,10.7.41,16.26-.27,3.43-1.96,5.84-5.06,7.23-3.11,1.4-6.15.29-9.12-3.33-1.36-2.06-2.23-4.25-2.64-6.57-.41-2.32-.55-4.74-.41-7.26.13-2.51.34-5.02.61-7.51.27-2.49.41-4.81.41-6.94.27-2.63.74-5.09,1.42-7.4.67-2.3,1.15-4.77,1.42-7.4.54-2.59.61-5.18.2-7.77-.41-2.59-.75-5.24-1.01-7.94-1.08-6.29-1.08-12.55,0-18.8,1.08-6.25,1.62-12.43,1.62-18.57.27-5.82.47-11.6.61-17.31.13-5.71.47-11.33,1.01-16.85.54-6.58.74-12.95.61-19.11-.14-6.15-.34-12.45-.61-18.89-.27-5.9-.07-11.61.61-17.11.67-5.5.87-11.2.61-17.11-.27-6.17-.2-12.43.2-18.77.41-6.34.74-12.55,1.01-18.65.54-5.78.81-11.54.81-17.28,0-5.73,0-11.4,0-17-3.51,3.75-6.63,7.97-9.32,12.66-2.71,4.69-5.82,9.06-9.33,13.12-1.08,1.46-2.5,3.4-4.26,5.84-1.76,2.44-3.72,4.72-5.89,6.84-2.17,2.13-4.4,3.92-6.7,5.37-2.31,1.46-4.54,1.92-6.71,1.4-2.17-.25-4.07-1.4-5.69-3.45-1.63-2.05-3.12-4.35-4.47-6.9-1.36-2.55-2.64-5.09-3.86-7.62-1.22-2.53-2.38-4.65-3.46-6.36-3.8-4.93-7.4-9.75-10.79-14.48-3.4-4.73-7.13-9.4-11.2-14.03.54,8.58,1.02,17.09,1.43,25.53.41,8.44.61,16.79.61,25.05-.55,8.22-1.16,16.3-1.83,24.24-.68,7.94-.48,15.96.61,24.05.81,3.81,1.56,7.68,2.24,11.6.67,3.93,1.02,7.76,1.02,11.49,0,3.74-.27,7.64-.81,11.73-.55,4.09-.95,8.11-1.22,12.09-.55,3.69-.41,7.3.41,10.84.81,3.54,1.36,7.19,1.63,10.95.27,3.76.47,7.44.61,11.06.13,3.61.2,7.29.2,11.02.27,5.62.27,11.29,0,17-.27,5.71-.14,11.66.41,17.84.27,5.36.34,10.77.2,16.22-.14,5.46-.07,10.86.2,16.22,0,1.6.2,3.69.61,6.26.41,2.58.54,5.05.41,7.44-.14,2.39-.68,4.41-1.63,6.05-.95,1.65-2.65,2.36-5.09,2.14-1.9-.17-3.46-1.03-4.68-2.61-1.22-1.57-2.11-3.44-2.65-5.62-.55-2.18-.95-4.34-1.22-6.5-.27-2.15-.41-3.9-.41-5.23-.27-5.35-.14-10.54.41-15.57.54-5.02.95-10.18,1.22-15.5,0-5.86-.07-11.54-.2-17.02-.14-5.47-.07-10.87.2-16.18,0-12.8-.68-25.39-2.04-37.77-1.36-12.37-1.77-24.94-1.22-37.7.27-6.11-.14-12.27-1.22-18.5-.55-2.71-1.02-5.34-1.43-7.91-.41-2.56-.34-5.03.2-7.38.82-5.54.82-10.74,0-15.6-.82-4.86-1.22-10.23-1.22-16.1-.27-6.15,0-12.2.82-18.14.82-5.94.95-11.99.41-18.17-.55-4.84-.75-9.66-.61-14.45.13-4.79-.2-9.62-1.02-14.48-.27-1.35-.48-3.17-.61-5.45-.14-2.27-.07-4.41.2-6.38.27-1.98.95-3.66,2.04-5.04,1.08-1.38,2.85-1.84,5.3-1.37,3.8.85,6.79,3.11,8.96,6.77,2.17,3.66,4.34,6.93,6.52,9.8,2.98,4.28,5.7,8.54,8.14,12.79,2.44,4.24,5.02,8.51,7.73,12.79,2.98,4.31,6.17,8.13,9.56,11.44,3.39,3.32,6.3,6.99,8.74,11.01,1.35-2.77,3.18-5.22,5.48-7.34,2.3-2.12,4.27-4.53,5.89-7.27,1.89-2.96,3.72-5.79,5.48-8.49,1.76-2.7,3.72-5.37,5.88-8.02,1.62-1.64,3.31-3.75,5.07-6.31,1.76-2.56,3.58-5.1,5.47-7.63,1.89-2.53,3.91-4.77,6.08-6.72,2.16-1.94,4.46-3.14,6.89-3.57Z"/>
      <path d="M2862.32,709.38c3.18.05,5.3,2.56,6.37,7.51,1.06,4.96,1.52,10.55,1.39,16.78-.14,6.23-.53,12.32-1.19,18.27-.66,5.96-.99,9.87-.99,11.73,0,6.14-.07,12.18-.2,18.15-.14,5.96.06,12.22.6,18.76.26,5.41,0,10.67-.8,15.78-.79,5.12-.93,10.55-.4,16.29.53,6.54.6,13.03.2,19.45-.4,6.43-.6,12.71-.6,18.84v18.2c0,6-.14,12.03-.4,18.09-.27,11.67-1.19,22.95-2.78,33.85-1.59,10.91-2.13,22.43-1.59,34.57.26,5.41.66,10.78,1.19,16.12.53,5.34.66,10.78.4,16.31-.27,3.4-1.93,5.62-4.98,6.68-3.05,1.06-6.04-.38-8.97-4.33-1.33-2.2-2.19-4.49-2.59-6.86-.4-2.36-.54-4.8-.4-7.3.13-2.5.33-4.98.6-7.45.26-2.46.4-4.76.4-6.9.26-2.6.73-5.01,1.4-7.24.66-2.23,1.13-4.64,1.39-7.24.53-2.53.6-5.11.2-7.75-.4-2.63-.74-5.32-1-8.06-1.07-6.4-1.07-12.67,0-18.8,1.06-6.13,1.59-12.25,1.59-18.39.26-5.79.46-11.54.6-17.25.13-5.7.46-11.28,1-16.74.53-6.53.73-12.87.6-19.05-.14-6.17-.34-12.49-.6-18.95-.27-5.93-.07-11.62.6-17.05.66-5.43.86-11.11.6-17.04-.27-6.2-.2-12.45.2-18.75.4-6.3.73-12.47,1-18.54.53-5.72.8-11.45.8-17.19v-17c-3.45,3.36-6.51,7.25-9.17,11.63-2.66,4.39-5.72,8.42-9.18,12.1-1.07,1.34-2.47,3.13-4.2,5.37-1.74,2.25-3.67,4.31-5.8,6.2-2.14,1.89-4.34,3.43-6.6,4.63-2.27,1.21-4.47,1.43-6.61.67-2.14-.49-4.01-1.85-5.61-4.07-1.61-2.22-3.08-4.69-4.41-7.39-1.34-2.7-2.61-5.38-3.81-8.04-1.2-2.66-2.35-4.91-3.41-6.74-3.75-5.34-7.3-10.56-10.65-15.66-3.36-5.1-7.04-10.18-11.06-15.26.53,8.64,1.01,17.2,1.41,25.68.4,8.48.6,16.86.6,25.12-.54,8.16-1.14,16.17-1.81,24.04-.67,7.87-.47,15.91.6,24.12.8,3.9,1.54,7.85,2.21,11.85.67,4,1.01,7.87,1.01,11.6,0,3.74-.27,7.61-.8,11.64-.54,4.03-.94,8.01-1.21,11.96-.54,3.63-.4,7.26.4,10.88.8,3.63,1.34,7.34,1.61,11.13.26,3.79.47,7.49.6,11.12.13,3.63.2,7.31.2,11.04.26,5.65.26,11.32,0,17-.27,5.68-.14,11.64.4,17.88.26,5.39.33,10.81.2,16.24-.14,5.44-.07,10.85.2,16.24,0,1.6.2,3.71.6,6.32.4,2.62.53,5.11.4,7.48-.14,2.37-.67,4.33-1.61,5.87-.94,1.55-2.61,2.07-5.03,1.59-1.88-.38-3.42-1.41-4.63-3.12-1.21-1.7-2.08-3.67-2.62-5.91-.54-2.24-.94-4.45-1.21-6.63-.27-2.18-.4-3.94-.4-5.28-.27-5.38-.14-10.56.4-15.52.54-4.96.94-10.08,1.21-15.37,0-5.86-.07-11.54-.2-17.04-.14-5.49-.07-10.88.2-16.16,0-12.8-.67-25.46-2.01-37.99-1.35-12.52-1.75-25.14-1.21-37.83.26-6.08-.14-12.29-1.21-18.63-.54-2.77-1.01-5.45-1.41-8.07-.4-2.61-.34-5.06.2-7.36.81-5.45.81-10.65,0-15.6-.81-4.95-1.21-10.36-1.21-16.23-.27-6.18,0-12.2.81-18.05.81-5.85.94-11.88.4-18.12-.54-4.9-.74-9.74-.61-14.51.13-4.78-.2-9.64-1.01-14.59-.27-1.38-.47-3.22-.6-5.51-.14-2.29-.07-4.41.2-6.36.26-1.95.94-3.55,2.02-4.82,1.07-1.26,2.82-1.53,5.24-.79,3.76,1.27,6.71,3.85,8.86,7.75,2.14,3.9,4.29,7.4,6.44,10.51,2.95,4.61,5.63,9.17,8.04,13.68,2.41,4.51,4.95,9.06,7.63,13.64,2.94,4.64,6.08,8.8,9.43,12.48,3.34,3.69,6.21,7.68,8.62,11.96,1.33-2.62,3.13-4.87,5.4-6.74,2.26-1.87,4.2-4.07,5.8-6.62,1.86-2.75,3.66-5.38,5.4-7.89,1.73-2.51,3.66-4.97,5.79-7.37,1.6-1.47,3.26-3.39,4.99-5.75,1.73-2.36,3.52-4.71,5.39-7.03,1.86-2.32,3.85-4.34,5.98-6.05,2.12-1.71,4.38-2.65,6.77-2.81Z"/>
      <path d="M2931.58,797.77c-3.68-8.39-7.09-16.93-10.24-25.66-3.15-8.72-5.79-17.27-7.89-25.65-1.06-2.72-2.17-5.87-3.36-9.43-1.19-3.56-.46-6.01,2.17-7.34,1.31-.93,2.89-.84,4.74.26,1.84,1.11,3.16,2.58,3.94,4.43,2.1,3.86,3.68,7.76,4.73,11.69,1.05,3.93,2.1,7.67,3.15,11.2,1.05,3.8,2.36,7.5,3.94,11.07,1.57,3.58,3.15,7.22,4.72,10.94,3.14,7.97,5.87,15.87,8.18,23.71,2.31,7.84,4.87,15.83,7.66,23.98,2.8-7.04,5.7-13.98,8.69-20.81,2.98-6.82,6.3-13.46,9.95-19.9,2.08-3.26,3.71-6.8,4.88-10.65,1.17-3.84,2.4-7.66,3.7-11.46.52-2.21,1.43-4.54,2.73-7,1.3-2.46,3.63-2.8,7.01-1.01,3.11,1.7,4.6,4.39,4.47,8.07-.13,3.69-1.04,7.48-2.72,11.38-1.69,3.91-3.57,7.61-5.64,11.11-2.08,3.5-3.5,5.91-4.28,7.23-2.86,6.16-5.33,12.46-7.41,18.92-2.09,6.45-4.43,12.95-7.03,19.5-.78,2.39-1.76,4.78-2.93,7.17-1.17,2.39-2.54,4.51-4.11,6.37.26,2.76.26,5.43,0,8-.26,2.58-.65,5.11-1.17,7.59-.53,4.89-.65,9.77-.39,14.66.26,4.89.26,9.69,0,14.4-.26,5.51-.14,11.22.39,17.14.52,5.92.52,11.58,0,17-.26,5.51-.46,10.98-.59,16.4-.13,5.42-.19,10.93-.19,16.53-.26,6.05-.26,11.78,0,17.2.26,5.43.13,10.98-.39,16.66-.53,5.16-.65,10.44-.39,15.86.26,5.43.39,10.8.39,16.14,0,3.47.45,7.09,1.37,10.87.91,3.78.84,6.96-.2,9.53-.26,1.25-.97,2.07-2.11,2.47-1.14.41-2.41.51-3.79.3-1.38-.2-2.71-.72-3.97-1.55-1.26-.83-2.15-1.99-2.67-3.5-1.31-3.37-1.57-6.66-.79-9.86.79-3.2.91-6.63.39-10.27-1.31-5.77-1.64-11.35-.98-16.73.65-5.38,1.24-10.79,1.77-16.21.26-3.38.2-6.6-.2-9.67-.39-3.06-.85-6.15-1.37-9.26-.53-2.84-.59-5.33-.2-7.47.39-2.13.85-4.45,1.37-6.94.52-2.22.45-4.65-.2-7.27-.66-2.62-1.24-5.35-1.77-8.19-.26-2.49-.07-4.89.59-7.2.65-2.31.98-4.67.98-7.07,0-3.2-.33-6.44-.98-9.73-.66-3.28-.98-6.39-.98-9.33.26-3.11.39-6.2.39-9.27,0-3.06,0-6.06,0-9,.52-4.63.59-9.4.2-14.33-.39-4.93-.59-9.93-.59-15-.53-6.31-.14-12.05,1.15-17.22-1.55-2.38-2.78-4.73-3.7-7.03-.92-2.3-1.9-4.69-2.95-7.17-1.31-4.96-2.43-9.93-3.34-14.89-.92-4.96-2.3-9.88-4.13-14.74Z"/>
      <path d="M3056.66,1078c0,4-1.41,6.19-4.21,6.59-2.82.4-5.75-.25-8.83-1.94-3.07-1.69-5.71-4.24-7.88-7.68-2.18-3.43-2.63-7.01-1.35-10.76.77-3.15,2.37-4.89,4.81-5.21,2.43-.32,4.93.33,7.49,1.94,2.56,1.62,4.86,4,6.9,7.14,2.04,3.14,3.07,6.45,3.07,9.92ZM3034.39,1111.42v.4-.4c.13.05.26.11.39.16-.13-.05-.26-.11-.39-.16.13.05.26.11.39.16-.13.08-.26.16-.39.24v-1.2.8ZM3034.77,1111.58c.13.19.26.37.39.56-.26-.11-.39-.3-.39-.56ZM3044.77,776.94c4.86.18,8.25,2.44,10.17,6.72,1.92,4.29,3,9.23,3.26,14.8.25,5.58.13,10.99-.38,16.23-.51,5.25-.77,8.94-.77,11.07.51,6.09.44,11.86-.19,17.32-.64,5.46-1.09,11.2-1.34,17.22,0,5.34.19,10.82.58,16.45.38,5.63.7,11.17.96,16.61.51,12.22.57,24.19.19,35.88-.38,11.7-.71,23.49-.96,35.39,0,12-.13,23.68-.38,35.04-.26,11.36-.64,22.66-1.15,33.91,0,2.94.06,6.23.19,9.88.13,3.65-.83,6.11-2.87,7.37-1.28.79-2.56.98-3.84.57-1.28-.41-2.37-1.2-3.26-2.38-.9-1.18-1.6-2.54-2.11-4.09-.52-1.55-.77-2.98-.77-4.32.25-11.09,0-22.13-.77-33.12-.77-10.98-.9-21.98-.38-32.96.25-11.63.19-23.52-.19-35.68-.38-12.16-1.22-24.51-2.5-37.04-.52-6.34-.58-12.57-.19-18.68.38-6.1.83-12.12,1.35-18.04.51-5.39.58-10.89.19-16.52-.39-5.62-.58-11.24-.58-16.84-.26-5.97-.64-11.87-1.15-17.68-.52-5.81-1.03-11.76-1.54-17.84-.26-3.84.06-8.04.96-12.6.9-4.56,3.4-6.8,7.5-6.67Z"/>
    </g>
  </g>
  <g id="Bears">
    <g id="Bears-2" data-name="Bears">
      <g class="cls-12">
        <g>
          <path class="cls-1" d="M3892.18,2733.93c-22.84,34.68-96.24,54.09-140.54,54.63-17.91.22-34.8,4.03-52.36,2.61-17.51-1.37-34.28-3.55-49.11-6.34-26.99-5.13-34.4-26.2-36.62-42.66-1.93-14.55-3.69-23.81-12.02-29.27-3.63-2.39-13.95-4.76-29.02-6.48-17.09-2.01-40.22-3.21-66.82-2.88-50.19.62-81.66,6.05-92.3,10.68-1.58.66-2.69,1.31-3.37,1.95-4.03,4.13-5.27,11.2-6.76,19.43-3.67,20.61-8.72,48.82-60.95,60.12-23.63,5.06-51.58,8.06-78.82,8.4-34.45.43-116.86-3.27-137.32-46.59-15.29-32.3-22.84-329.28-14.8-498.04,5.97-125.53,24.33-355.53,80.12-485.6,2.63-6.13,5.47-12.15,8.62-18.34-23.35-32.36-43.02-101.39,5.17-147.84,16.81-16.21,37.75-24.95,60.48-25.24,34.87-.43,69.88,19.12,87.58,40.21,49.29-16.99,99.81-21.11,143.04-22.92,4.24-.16,8.53-.26,12.93-.32,50.35-.62,101.37,6.96,144.65,21.48,17.2-18.92,49.79-37.13,83.12-37.55,24.32-.3,46.43,8.75,63.98,26.24,48.3,48.06,25.54,118.99,1.27,149.88,69.84,225.41,130.22,913.18,89.84,974.42Z"/>
          <ellipse class="cls-10" cx="3269.42" cy="2778.39" rx="108.4" ry="22.04" transform="translate(-34.11 40.64) rotate(-.71)"/>
          <path class="cls-10" d="M3858.73,2751.89c.15,12.17-45.96,35.97-108.42,36.74-62.45.77-111.74-4.03-111.89-16.21-.15-12.17,48.89-27.1,111.34-27.87,62.45-.77,108.81-4.83,108.96,7.34Z"/>
          <path d="M3265.91,1593.07c36.38-.45,71.21,23.04,83.65,42.24,50.81-18.91,103.9-23.15,147.3-24.93,4.13-.17,8.32-.28,12.58-.33,46.4-.57,99.79,5.95,148,23.3,13.13-18.07,45.65-38.95,79.8-39.37,19.32-.24,39.18,6.07,56.33,23.15,46.72,46.51,19.22,115.88-3.11,140.01,0,.02.02.05.02.07,74.41,233.39,128.08,917.42,92.85,970.92-16.6,25.21-85.44,41.77-131.83,49.83-42.1,5.87-66.55,10.99-98.84-1.46-32.28-12.45-17.14-53.98-45.29-72.46-12.02-7.89-56.9-11.63-101.79-11.07-46.67.58-93.37,5.79-103.13,15.8-19.15,19.63,5.14,62.01-62.38,76.58-22.41,4.84-49.53,7.85-76.68,8.19-56.61.7-113.34-10.24-127.66-40.53-27.19-57.51-29.17-754.26,65.53-974.95,3.57-8.31,7.4-16.15,11.41-23.65-21.76-25.31-46.88-93.89-.03-139.06,16.4-15.81,35.02-22.05,53.26-22.27M3265.65,1571.87h0c-25.48.31-48.9,10.07-67.71,28.21-50.32,48.52-33.66,119.05-10.05,156.26-2.16,4.45-4.19,8.88-6.11,13.35-56.47,131.6-74.98,363.05-80.99,489.3-7.22,151.73-2.26,464.92,15.78,503.07,22.28,47.13,101.72,53.23,147.09,52.66,27.89-.34,56.62-3.42,80.89-8.66,59.18-12.78,65.43-47.72,69.16-68.59.91-5.12,1.94-10.85,3.42-13.25,7.9-3.96,39.43-9.46,88.71-10.07,50.08-.62,83.21,4.21,90.07,7.71,4.24,2.93,5.5,9.22,7.16,21.72,2.16,16.27,9.17,42.7,43.64,54.62,34.48,11.92,53.51,19.45,109.68,6.91,86.58-19.33,119.66-33.54,148.31-64.98,20.25-21.73,12.3-152.13,10.45-250.26-1.21-64.23-6.95-149.12-16.15-239.04-15.81-154.42-46.24-361.68-84.96-489.27,25.75-36.23,45.96-108.24-5.51-159.48-19.61-19.52-44.35-29.66-71.55-29.32-33.85.42-66.2,16.99-86.03,36.02-42.96-13.51-92.71-20.56-141.78-19.95-4.4.05-8.84.17-13.18.35-42.12,1.73-91,5.69-139.43,21.26-20.23-20.77-54.68-39.03-90.91-38.58h0Z"/>
          <path class="cls-10" d="M3546.25,1982.25c.42,33.7-20,61.27-45.6,61.59-25.6.32-46.69-26.74-47.11-60.44s20.13-50.67,45.73-50.99c25.6-.32,46.56,16.14,46.98,49.84Z"/>
          <path d="M3517.97,1950.81c.08,6.68-8.04,18.99-18.25,19.12-10.21.13-18.64-11.97-18.72-18.66-.08-6.68,8.17-8.79,18.38-8.92,10.21-.13,18.51,1.78,18.6,8.46Z"/>
          <path class="cls-10" d="M3238.58,1719.79c11.45,6.18,77.11-51.47,76.95-64.8-.26-22.75-55.54-43.56-81.87-16.76-24.56,25-6.54,75.37,4.92,81.55Z"/>
          <path class="cls-10" d="M3767.96,1719.5c-11.3,6.46-78.35-49.54-78.53-62.88-.3-22.75,54.44-44.92,81.43-18.78,25.17,24.39,8.4,75.19-2.9,81.65Z"/>
          <path class="cls-10" d="M3683.98,2364.17c1.35,109.28-77.6,156.71-175.7,157.92s-178.2-44.25-179.55-153.53c-1.35-109.28,76.56-240.98,174.66-242.2,98.1-1.21,179.24,128.53,180.6,237.8Z"/>
          <ellipse class="cls-10" cx="3717.96" cy="1969.74" rx="35.1" ry="12.23" transform="translate(-24.07 46.13) rotate(-.71)"/>
          <ellipse class="cls-10" cx="3284.42" cy="1978.56" rx="35.1" ry="12.23" transform="translate(-24.22 40.77) rotate(-.71)"/>
          <path d="M3661.94,1906.64c-10.3,5.07-20.61,10.14-30.91,15.21-1.35.67-1.82,2.69-1.38,4.01.49,1.49,1.96,2.44,3.5,2.4l29.87-.7c4.52-.11,4.15-7.1-.35-7-9.96.23-19.91.47-29.87.7.71,2.14,1.41,4.28,2.12,6.41,10.3-5.07,20.61-10.14,30.91-15.21,1.7-.84,1.92-3.43.97-4.86-1.16-1.74-3.15-1.81-4.86-.97h0Z"/>
          <path d="M3307.32,1915.65c10.36,4.95,20.73,9.89,31.09,14.84,1.36.65,1.85,2.67,1.43,4-.47,1.49-1.93,2.46-3.47,2.44-9.96-.11-19.91-.23-29.87-.34-4.52-.05-4.24-7.05.26-7,9.96.11,19.91.23,29.87.34-.68,2.15-1.36,4.29-2.04,6.44-10.36-4.95-20.73-9.89-31.09-14.84-1.71-.82-1.96-3.41-1.03-4.84,1.14-1.76,3.13-1.85,4.85-1.03h0Z"/>
          <path d="M3497.31,1964c1.27,8.51.24,17.32-2.94,25.31-1.09,2.75-3.14,8.06-6.95,7.46-4.44-.69-4.87-6.65-5.1-10.1-.15-2.24-3.65-2.23-3.5.02.32,4.81,1.08,10.39,5.89,12.81,4.57,2.3,8.74-.81,10.97-4.74,5.32-9.38,6.57-21.21,5-31.72-.33-2.22-3.7-1.25-3.37.95h0Z"/>
          <path d="M3498.01,1969.89c-.49,4.68-.37,9.36.34,14.01.61,4.05,1.49,8.46,3.53,12.06,1.75,3.09,4.98,5.37,8.65,4.28,4.07-1.21,5.97-5.17,6.92-8.98.55-2.19-2.84-3.1-3.38-.91-.67,2.66-1.99,6.5-5.3,6.67-2.8.14-4.26-3.25-4.99-5.43-2.34-6.97-3.01-14.42-2.25-21.72.23-2.24-3.27-2.2-3.5.02h0Z"/>
        </g>
        <g>
          <path class="cls-2" d="M2606.84,2690.85c-23.52,34.22-101.41,38.78-145.72,38.45-17.91-.13-36.24-1.12-53.77-2.89-17.48-1.72-34.21-4.23-48.97-7.31-26.88-5.66-29.42-28.26-31.31-44.75-1.64-14.59-3.21-23.87-11.44-29.5-3.59-2.46-13.85-5.03-28.89-7.05-17.05-2.35-40.14-4.01-66.75-4.21-50.19-.38-81.76,4.42-92.5,8.85-1.59.62-2.71,1.25-3.41,1.88-4.11,4.05-5.49,11.09-7.14,19.29-4.08,20.53-9.69,48.63-62.13,58.9-23.73,4.59-51.73,7.03-78.97,6.83-34.45-.26-116.77-5.59-136.37-49.3-14.65-32.6-16.3-329.67-4.91-498.23,8.46-125.39,31.38-354.97,89.74-483.91,2.75-6.07,5.71-12.04,8.99-18.16-22.7-32.82-41-102.23,8.1-147.7,17.13-15.88,38.24-24.2,60.97-24.03,34.87.26,69.49,20.5,86.77,41.94,49.62-16.01,100.21-19.13,143.46-20.07,4.24-.07,8.53-.1,12.93-.06,50.35.38,101.22,8.97,144.19,24.34,17.58-18.58,50.51-36.14,83.85-35.89,24.33.18,46.25,9.67,63.45,27.5,47.33,49.01,23.17,119.48-1.7,149.87,65.35,226.75,113.11,934.81,71.53,995.24Z"/>
          <path d="M2002.28,1518.57c36.38.27,70.74,24.45,82.79,43.89,51.18-17.9,104.34-21.09,147.77-22,4.13-.09,8.32-.12,12.58-.08,46.4.35,99.65,7.93,147.51,26.23,13.48-17.81,46.41-38.04,80.57-37.78,19.33.14,39.05,6.85,55.86,24.26,45.79,47.43,16.92,116.24-5.89,139.92,0,.02.02.05.02.07,69.77,234.82,110.89,939,74.6,991.79-17.1,24.88-76.29,34.28-136.92,33.82-35.84-.27-72.18-3.98-100.63-9.97-35.97-7.58-11.14-53.6-38.92-72.63-11.86-8.13-56.66-12.75-101.55-13.09-46.68-.35-93.46,3.94-103.42,13.75-19.53,19.24,3.91,62.09-63.89,75.33-22.5,4.39-49.67,6.87-76.82,6.66-56.61-.42-113.11-12.48-126.83-43.05-26.04-58.03-14.2-754.7,84.86-973.46,3.73-8.24,7.72-16,11.88-23.42-21.26-25.74-45-94.8,2.73-139.03,16.71-15.48,35.45-21.35,53.69-21.21M2002.44,1497.37h0c-25.48-.19-49.09,9.1-68.26,26.86-51.27,47.51-36.02,118.36-13.15,156.03-2.25,4.41-4.36,8.79-6.37,13.23-59.07,130.46-82.17,361.49-90.68,487.6-10.23,151.56-11.48,464.78,5.79,503.28,21.34,47.56,100.64,55.23,146.01,55.57,27.89.21,56.68-2.3,81.04-7.06,59.42-11.6,66.36-46.41,70.51-67.21,1.02-5.1,2.15-10.81,3.68-13.18,7.98-3.8,39.61-8.67,88.9-8.3,50.08.37,83.11,5.86,89.9,9.5,4.18,3.01,5.32,9.32,6.73,21.86,1.83,16.31,5.25,46.67,39.63,53.91,30.16,6.35,68.37,10.15,104.84,10.42,56.72.42,129.58-6.69,154.55-43.01,7.88-11.47,17.94-170.65,18.03-268.8.06-64.24-3.99-149.23-11.41-239.31-12.74-154.7-39.06-362.53-75.23-490.86,26.46-35.72,48.09-107.31-2.35-159.55-19.22-19.91-43.75-30.53-70.95-30.74-33.85-.25-66.52,15.67-86.73,34.31-42.68-14.36-92.28-22.39-141.35-22.76-4.4-.03-8.84,0-13.19.09-42.14.89-91.1,3.88-139.82,18.49-19.82-21.17-53.9-40.1-90.13-40.38h0Z"/>
          <path d="M2247.19,1881.25c-.05,6.68-8.42,18.83-18.63,18.75-10.21-.08-18.4-12.34-18.35-19.03s8.34-8.63,18.55-8.55c10.21.08,18.47,2.14,18.42,8.83Z"/>
          <path class="cls-6" d="M1972.44,1644.73c11.33,6.41,78.11-49.93,78.22-63.26.19-22.75-54.66-44.66-81.52-18.38-25.05,24.51-8.03,75.23,3.3,81.64Z"/>
          <path class="cls-6" d="M2501.73,1654.93c-11.42,6.24-77.36-51.09-77.27-64.42.15-22.75,55.32-43.83,81.79-17.16,24.68,24.88,6.91,75.34-4.52,81.58Z"/>
          <path d="M2225.86,1893.7c.06,10.21.14,20.42.18,30.63.02,4.11.09,8.47-1.49,12.35-.87,2.14-2.44,4.55-4.75,5.31-2.08.68-4.19-.28-4.49-2.53-.34-2.53-4.17-1.48-3.84,1.03.63,4.72,6,6.72,10.06,5.06,4.95-2.01,7.27-7.53,8.03-12.47.91-5.94.44-12.13.4-18.12-.04-7.08-.08-14.16-.12-21.25-.02-2.56-3.99-2.59-3.97-.03h0Z"/>
          <path d="M2226.71,1893.71c-.14,6.92-.29,13.83-.43,20.75-.13,6.14-.72,12.51.12,18.62.67,4.88,2.84,10.29,7.6,12.48,4.06,1.87,9.66,0,10.38-4.81.37-2.5-3.45-3.61-3.82-1.09-.33,2.24-2.46,3.17-4.53,2.46-2.3-.79-3.83-3.23-4.67-5.38-1.52-3.91-1.38-8.26-1.31-12.37.19-10.21.43-20.42.64-30.63.05-2.56-3.92-2.59-3.97-.03h0Z"/>
          <ellipse class="cls-6" cx="2446.77" cy="1904.14" rx="12.23" ry="35.1" transform="translate(524.4 4336.61) rotate(-89.57)"/>
          <ellipse class="cls-6" cx="2013.14" cy="1904.35" rx="12.23" ry="35.1" transform="translate(93.8 3903.2) rotate(-89.57)"/>
          <path d="M2372.5,1852.75l50.56,10.73c2.77.59,5.68-.82,6.46-3.67.72-2.61-.88-5.87-3.67-6.46-16.85-3.58-33.71-7.15-50.56-10.73-2.77-.59-5.68.82-6.46,3.67-.72,2.61.88,5.87,3.67,6.46h0Z"/>
          <path d="M2032.62,1864.63c17.51-4.01,35.02-8.02,52.53-12.03,6.59-1.51,3.8-11.64-2.79-10.13-17.51,4.01-35.02,8.02-52.53,12.03-6.59,1.51-3.8,11.64,2.79,10.13h0Z"/>
        </g>
        <g>
          <g>
            <path class="cls-2" d="M2695.38,1786.69s60.2-98.19,6.48-142.77c-.53-.44-67.59-38.79-95.05,37.59-14.53,40.42-18.34,80.97-18.34,80.97"/>
            <path d="M2695.8,1793.24c2.06-.13,4.02-1.23,5.18-3.12,2.58-4.21,62.52-103.59,5.07-151.26-15.88-13.18-44.56-26.5-73.3-16.81-16.89,5.7-28.89,43.04-32.34,57.97-9.76,42.12-18.52,79.68-18.51,82.49.02,3.63,2.98,6.55,6.61,6.53,3.68-.03,6.55-2.98,6.53-6.61,0-.67,8.76-38.84,18.17-79.44,2.41-10.4,11.22-44.26,23.74-48.48,23.75-8.01,47.79,3.75,60.71,14.47,48.78,40.48-7.31,133.35-7.88,134.28-1.9,3.09-.93,7.14,2.17,9.03,1.2.74,2.55,1.04,3.85.96Z"/>
          </g>
          <g>
            <path class="cls-2" d="M2708.16,1671.48s51.42-31.04,31.75-53.94c-18.09-21.05-57.32,22.65-57.32,22.65"/>
            <path d="M2708.59,1678.04c1.02-.07,2.03-.37,2.96-.93,3.63-2.19,35.55-22.04,39.08-44.06,1.16-7.22-.83-14.06-5.75-19.79-4.45-5.17-10.39-7.95-17.18-8.02-21.72-.3-47.18,27.41-50.01,30.56-2.42,2.7-2.2,6.85.5,9.27,2.7,2.43,6.85,2.21,9.28-.49,6.6-7.34,26.66-26.33,40.1-26.2,3.02.03,5.36,1.13,7.35,3.44,2.42,2.81,3.29,5.71,2.74,9.14-2.17,13.61-24.49,29.81-32.9,34.9-3.1,1.88-4.1,5.92-2.22,9.02,1.31,2.17,3.68,3.31,6.05,3.16Z"/>
          </g>
          <g>
            <path class="cls-2" d="M2682.58,1640.19s-.95-59.76-29.27-55.09c-33.88,5.58-5.25,73.81-5.25,73.81"/>
            <path d="M2648.49,1665.47c.71-.05,1.42-.21,2.12-.5,3.35-1.4,4.92-5.25,3.52-8.6-4.9-11.7-15.91-45.13-8.16-59.15,1.77-3.19,4.44-4.98,8.42-5.64,3.22-.54,5.86.17,8.28,2.19,10.46,8.72,13.18,36.54,13.35,46.52.06,3.63,3.05,6.52,6.68,6.46,3.67-.04,6.52-3.05,6.46-6.67-.07-4.29-1.15-42.27-18.06-56.39-5.35-4.47-11.87-6.22-18.85-5.07-7.92,1.31-14.07,5.54-17.78,12.25-12.2,22.07,5.48,65.68,7.54,70.58,1.11,2.65,3.77,4.19,6.48,4.01Z"/>
          </g>
          <g>
            <path class="cls-2" d="M2639.58,1658.45s38.48.88,32.01,18.75c-6.48,17.87-43.65,10.5-43.65,10.5"/>
            <path d="M2649.33,1695.67c11.64-.75,24.17-4.48,28.43-16.23,2.43-6.72.5-11.7-1.55-14.69-7.96-11.63-31.79-12.76-36.48-12.86-3.64-.06-6.63,2.79-6.71,6.41-.09,3.63,2.78,6.63,6.41,6.72,8.98.22,22.99,2.83,25.95,7.15.26.38.68,1,.04,2.79-3.43,9.45-25.87,8.32-36.2,6.29-3.56-.7-7.01,1.61-7.71,5.17-.7,3.56,1.61,7.01,5.16,7.72,2.09.41,12,2.22,22.67,1.53Z"/>
          </g>
        </g>
        <g>
          <path class="cls-11" d="M3223,2828.58c-21.54,35.5-94.16,57.62-138.41,59.81-17.89.89-34.62,5.32-52.22,4.55-17.55-.72-34.39-2.28-49.31-4.51-27.16-4.12-35.35-24.91-38.18-41.27-2.47-14.47-4.57-23.65-13.1-28.8-3.72-2.26-14.11-4.24-29.24-5.4-17.15-1.38-40.31-1.72-66.88-.4-50.13,2.48-81.37,9.07-91.84,14.1-1.56.71-2.64,1.4-3.29,2.07-3.87,4.28-4.85,11.38-6.03,19.67-2.9,20.73-6.91,49.11-58.68,62.34-23.43,5.94-51.24,9.97-78.45,11.31-34.41,1.7-116.9,1.07-138.96-41.46-16.48-31.71-35.04-328.21-33.27-497.15,1.31-125.67,11.12-356.18,62.05-488.23,2.4-6.22,5.01-12.35,7.94-18.65-24.54-31.47-46.75-99.73-.32-147.93,16.2-16.83,36.8-26.34,59.5-27.46,34.83-1.72,70.54,16.51,89.01,36.93,48.63-18.8,98.96-24.8,142.09-28.21,4.23-.32,8.51-.58,12.91-.8,50.29-2.49,101.56,3.2,145.34,16.1,16.49-19.55,48.38-38.96,81.67-40.61,24.3-1.2,46.73,7.03,64.91,23.85,50.05,46.23,29.93,117.96,6.83,149.73,78.15,222.66,164.01,907.72,125.94,970.42Z"/>
          <ellipse class="cls-5" cx="2602.32" cy="2896.12" rx="108.4" ry="22.04" transform="translate(-140.06 132.25) rotate(-2.83)"/>
          <path class="cls-5" d="M3190.23,2847.77c.6,12.16-44.6,37.65-106.98,40.74s-111.81.11-112.41-12.04c-.6-12.16,47.85-28.89,110.23-31.98,62.38-3.09,108.56-8.87,109.16,3.29Z"/>
          <path d="M2554.83,1711.74c36.34-1.8,72.01,20.38,85.15,39.11,50.07-20.78,102.97-26.99,146.27-30.38,4.12-.32,8.3-.59,12.56-.8,46.35-2.29,99.94,2.25,148.77,17.79,12.45-18.54,44.17-40.62,78.29-42.31,19.3-.96,39.37,4.62,57.15,21.04,48.42,44.74,23.51,115.08,2.08,140.03,0,.02.02.05.03.07,83.02,230.47,162.03,912.03,128.81,966.81-15.66,25.81-83.83,44.91-129.89,54.69-41.85,7.43-66.1,13.46-98.82,2.21-32.72-11.25-19.13-53.31-47.95-70.73-12.31-7.44-57.29-9.51-102.13-7.29-46.62,2.31-93.09,9.25-102.47,19.61-18.41,20.32,7.43,61.77-59.5,78.85-22.21,5.67-49.2,9.68-76.32,11.03-56.54,2.8-113.64-6.03-129.07-35.76-29.3-56.46-57.14-752.66,29.31-976.71,3.26-8.44,6.8-16.41,10.53-24.05-22.69-24.49-50.33-92.09-5.19-138.96,15.8-16.41,34.18-23.33,52.4-24.23M2553.78,1690.57h0c-25.45,1.26-48.49,11.88-66.62,30.7-48.49,50.35-29.22,120.22-4.25,156.53-2,4.53-3.85,9.03-5.61,13.57-51.55,133.61-61.46,365.58-62.78,491.97-1.58,151.9,14.99,464.68,34.43,502.14,24.01,46.27,103.62,49.41,148.94,47.17,27.86-1.38,56.45-5.52,80.51-11.66,58.67-14.97,63.61-50.11,66.57-71.11.72-5.15,1.54-10.91,2.93-13.36,7.75-4.25,39.05-10.91,88.28-13.35,50.02-2.48,83.31,1.12,90.3,4.37,4.35,2.77,5.84,9,7.96,21.44,2.76,16.18,10.74,42.33,45.64,52.96,34.9,10.63,54.19,17.45,109.86,2.83,85.81-22.53,118.34-37.95,145.8-70.44,19.43-22.46,6.65-152.49,1.16-250.48-3.59-64.14-12.48-148.76-25.01-238.27-21.53-153.72-59.63-359.72-103.05-485.78,24.39-37.17,41.91-109.87-11.43-159.16-20.32-18.78-45.42-27.99-72.59-26.65-33.81,1.67-65.52,19.43-84.64,39.19-43.43-11.91-93.41-17.1-142.42-14.68-4.39.22-8.82.5-13.16.84-42.02,3.29-90.73,9.06-138.54,26.42-20.99-20.01-56.09-36.97-92.28-35.18h0Z"/>
          <path class="cls-5" d="M2849.41,2090.26c1.67,33.66-17.71,61.97-43.28,63.24-25.57,1.27-47.65-24.99-49.32-58.65s18.24-51.38,43.81-52.65c25.57-1.27,47.13,14.41,48.8,48.06Z"/>
          <circle cx="2627.21" cy="2052.98" r="17.23"/>
          <path d="M2819.98,2059.89c.33,6.68-7.33,19.27-17.53,19.78-10.2.5-19.07-11.28-19.4-17.95-.33-6.68,7.84-9.09,18.04-9.59,10.2-.51,18.57,1.09,18.9,7.77Z"/>
          <path class="cls-5" d="M2532.21,1839.4c11.68,5.75,75.14-54.29,74.5-67.61-1.1-22.73-57.11-41.47-82.44-13.71-23.62,25.89-3.74,75.57,7.94,81.32Z"/>
          <path class="cls-5" d="M3061.23,1819.46c-11.05,6.88-80.14-46.6-80.81-59.92-1.15-22.73,52.74-46.91,80.68-21.78,26.06,23.43,11.18,74.83.13,81.7Z"/>
          <path d="M2746.31,1798.55c.46,4.77.93,9.54,1.39,14.32.1,1.07.97,1.94,2.08,1.89,1.04-.05,1.99-1.01,1.89-2.08-.46-4.77-.93-9.54-1.39-14.32-.1-1.07-.97-1.94-2.08-1.89-1.04.05-1.99,1.01-1.89,2.08h0Z"/>
          <path d="M2772.1,1792.48c.69,4.76,1.37,9.52,2.06,14.28.15,1.06.94,1.94,2.08,1.89,1-.05,2.04-1.01,1.89-2.08-.69-4.76-1.37-9.52-2.06-14.28-.15-1.06-.94-1.94-2.08-1.89-1,.05-2.04,1.01-1.89,2.08h0Z"/>
          <path d="M2808.44,1788.72c-.41,4.59-.81,9.19-1.22,13.78-.09,1.07.36,2.12,1.51,2.37.94.21,2.28-.43,2.37-1.51.41-4.59.81-9.19,1.22-13.78.09-1.07-.36-2.12-1.51-2.37-.94-.21-2.28.43-2.37,1.51h0Z"/>
          <path d="M2764.54,1834.64c.41,3.63.82,7.27,1.22,10.9.12,1.03.97,1.99,2.08,1.89,1.02-.1,2.01-.98,1.89-2.08-.41-3.63-.82-7.27-1.22-10.9-.12-1.03-.97-1.99-2.08-1.89-1.02.1-2.01.98-1.89,2.08h0Z"/>
          <path d="M2796.66,1833.05c-.24,4.35-.48,8.7-.72,13.05-.06,1.04,1.09,1.98,2.08,1.89,1.17-.11,1.82-.97,1.89-2.08.24-4.35.48-8.7.72-13.05.06-1.04-1.09-1.98-2.08-1.89-1.17.11-1.82.97-1.89,2.08h0Z"/>
          <path d="M2783.15,1864.54c.49,5.23.97,10.45,1.46,15.68.1,1.07.98,1.94,2.08,1.89,1.04-.05,1.99-1.01,1.89-2.08-.49-5.23-.97-10.45-1.46-15.68-.1-1.07-.98-1.94-2.08-1.89-1.04.05-1.99,1.01-1.89,2.08h0Z"/>
          <path class="cls-5" d="M3001.22,2466.8c5.41,109.15-71.73,159.48-169.72,164.33-97.99,4.85-179.72-37.61-185.13-146.76-5.41-109.15,67.56-243.66,165.55-248.51s183.89,121.79,189.29,230.94Z"/>
          <ellipse class="cls-5" cx="3020.54" cy="2071.39" rx="35.1" ry="12.23" transform="translate(-98.75 151.93) rotate(-2.83)"/>
          <ellipse class="cls-5" cx="2587.63" cy="2096.28" rx="35.1" ry="12.23" transform="translate(-100.51 130.55) rotate(-2.83)"/>
          <path d="M2962.69,2021.37c-10.11,5.45-20.22,10.9-30.33,16.35-1.33.72-1.72,2.76-1.23,4.06.55,1.47,2.05,2.36,3.59,2.27,9.94-.6,19.88-1.21,29.82-1.81,4.51-.27,3.89-7.25-.61-6.98-9.94.6-19.88,1.21-29.82,1.81.78,2.11,1.57,4.22,2.35,6.33,10.11-5.45,20.22-10.9,30.33-16.35,1.67-.9,1.79-3.5.79-4.89-1.22-1.7-3.22-1.69-4.89-.79h0Z"/>
        </g>
        <g id="Bear01">
          <g>
            <path class="cls-9" d="M1199.73,1968.39s-158.11,115.1-128.67,236.35c29.44,121.25,73.78,113.37,73.78,113.37"/>
            <path d="M1138.67,2328.54c-16.46-2.25-53.16-19.33-77.91-121.3-30.76-126.69,126.04-242.55,132.73-247.42,4.73-3.44,11.36-2.41,14.8,2.33,3.45,4.73,2.41,11.36-2.32,14.81-1.52,1.11-152.02,112.39-124.61,225.28,26,107.06,61.73,105.4,62.08,105.37l1.4,10.5,1.85,10.44c-1.1.19-3.94.55-8.02-.01Z"/>
          </g>
          <path class="cls-9" d="M1819.28,2806.99c-27.72,30.92-105.55,25.45-149.45,19.43-17.75-2.43-35.8-5.76-52.96-9.77-17.11-3.95-33.38-8.58-47.63-13.53-25.93-9.06-25.55-31.8-25.31-48.4.25-14.68-.12-24.09-7.56-30.72-3.24-2.9-13.09-6.77-27.74-10.7-16.61-4.52-39.3-9.13-65.66-12.74-49.73-6.81-81.65-6.1-92.87-3.09-1.66.41-2.85.89-3.62,1.43-4.6,3.49-6.87,10.29-9.56,18.22-6.68,19.84-15.85,46.99-69.18,50.44-24.12,1.51-52.2.34-79.19-3.36-34.13-4.68-115.09-20.53-128.92-66.39-10.35-34.21,26.14-329.04,59.06-494.74,24.48-123.27,76.67-348.01,151.09-468.4,3.5-5.67,7.21-11.21,11.24-16.86-18.31-35.46-27.54-106.64,26.99-145.44,19.03-13.55,41.02-19.09,63.55-16.01,34.55,4.73,66.28,29.25,80.67,52.72,51.27-9.51,101.83-6.11,144.85-1.5,4.22.47,8.48,1,12.83,1.6,49.88,6.83,99.23,21.89,139.88,42.65,19.81-16.17,54.73-29.36,87.76-24.83,24.1,3.3,44.63,15.53,59.39,35.42,40.65,54.68,7.65,121.46-20.92,148.41,35.72,233.26-7.77,941.6-56.76,996.19Z"/>
          <ellipse class="cls-3" cx="1198.23" cy="2739.62" rx="22.04" ry="108.4" transform="translate(-1678.66 3554.94) rotate(-82.2)"/>
          <ellipse class="cls-3" cx="1671.5" cy="2804.45" rx="22.04" ry="113.09" transform="translate(-1333.87 4079.85) rotate(-82.2)"/>
          <path d="M1370.15,1566.82c36.05,4.94,67.02,33.32,76.47,54.15,53.05-11.19,106.18-7.52,149.37-2.86,4.11.44,8.27.95,12.49,1.53,45.97,6.3,97.81,20.65,142.93,44.94,15.66-15.93,50.91-31.77,84.75-27.13,19.15,2.62,37.85,11.8,52.28,31.23,39.33,52.91,1.86,117.45-23.8,138.01,0,.02.01.05.01.07,39.06,241.83-10.51,945.47-53.27,993.17-20.15,22.48-80.06,24.2-140.13,15.97-35.51-4.86-71.08-13.21-98.52-22.8-34.7-12.13-4.17-54.59-29.27-77.03-10.72-9.59-54.55-19.92-99.04-26.01-46.24-6.34-93.2-8.08-104.33.37-21.84,16.58-4.09,62.08-73.03,66.51-22.87,1.47-50.14.44-77.04-3.25-56.09-7.68-110.58-26.9-120.26-58.97-18.38-60.9,82.76-750.28,209.06-954.52,4.76-7.69,9.71-14.87,14.79-21.7-17.78-28.25-32.47-99.79,20.55-137.53,18.56-13.21,37.9-16.62,55.97-14.15M1373.03,1545.82h0c-25.25-3.46-49.85,2.72-71.14,17.88-56.95,40.54-50.91,112.76-33.06,153.05-2.8,4.08-5.45,8.16-8.01,12.3-75.32,121.8-127.87,347.96-152.5,471.93-29.59,149-71.03,459.46-58.83,499.87,15.06,49.91,92.72,67.69,137.67,73.85,27.64,3.79,56.5,4.99,81.28,3.4,60.42-3.88,71.77-37.51,78.55-57.61,1.66-4.92,3.52-10.44,5.34-12.6,8.4-2.74,40.39-3.52,89.23,3.17,49.62,6.8,81.67,16.48,87.94,20.96,3.76,3.52,4.08,9.93,3.87,22.54-.27,16.41-.78,46.96,32.39,58.55,29.1,10.17,66.5,18.84,102.64,23.79,56.2,7.7,129.37,9.99,158.79-22.83,9.29-10.36,39.69-166.94,52.38-264.26,8.31-63.7,15.19-148.5,19.39-238.79,7.21-155.06,7.78-364.54-11.63-496.45,30.83-32.03,61.47-100.25,18.14-158.54-16.5-22.21-39.47-35.9-66.42-39.59-33.54-4.59-67.98,7.01-90.41,22.9-40.49-19.72-88.65-34.05-137.26-40.71-4.36-.6-8.76-1.14-13.09-1.6-41.91-4.52-90.84-7.84-141.04.39-16.93-23.54-48.31-46.69-84.2-51.61h0Z"/>
          <path class="cls-3" d="M1589.81,1993.21c-4.57,33.39-28.85,57.64-54.21,54.16s-42.22-33.36-37.65-66.74c4.57-33.39,27.41-47.13,52.77-43.66s43.66,22.86,39.09,56.24Z"/>
          <circle cx="1378.31" cy="1915.56" r="17.23" transform="translate(-72.65 54.43) rotate(-2.2)"/>
          <circle cx="1720.72" cy="1962.47" r="17.23"/>
          <path d="M1566.5,1957.93c-.91,6.62-10.77,17.59-20.88,16.2-10.12-1.39-16.66-14.6-15.75-21.22s9.38-7.49,19.5-6.1c10.12,1.39,18.05,4.5,17.14,11.12Z"/>
          <path class="cls-3" d="M1324.36,1688.11c10.41,7.81,83.87-39.49,85.69-52.7,3.11-22.54-48.48-51.3-78.49-28.69-27.99,21.09-17.62,73.58-7.2,81.38Z"/>
          <path class="cls-3" d="M1847.97,1766.15c-12.13,4.72-70.16-60.59-68.36-73.8,3.07-22.55,60.49-36.37,83.31-6.52,21.29,27.84-2.82,75.61-14.95,80.32Z"/>
          <path d="M1542.32,1687.48c-.43,4.78-.85,9.55-1.28,14.33-.1,1.07.6,2.09,1.7,2.24,1.03.14,2.14-.62,2.24-1.7.43-4.78.85-9.55,1.28-14.33.1-1.07-.6-2.09-1.7-2.24-1.03-.14-2.14.62-2.24,1.7h0Z"/>
          <path d="M1568.79,1686.27c-.2,4.81-.41,9.61-.61,14.42-.05,1.07.56,2.08,1.7,2.24.99.14,2.19-.62,2.24-1.7.2-4.81.41-9.61.61-14.42.05-1.07-.56-2.08-1.7-2.24-.99-.14-2.19.62-2.24,1.7h0Z"/>
          <path d="M1605.2,1689.28c-1.25,4.44-2.5,8.88-3.74,13.32-.29,1.03-.03,2.15,1.04,2.61.89.38,2.32,0,2.61-1.04,1.25-4.44,2.5-8.88,3.74-13.32.29-1.03.03-2.15-1.04-2.61-.89-.38-2.32,0-2.61,1.04h0Z"/>
          <path d="M1553.58,1726.31c-.27,3.65-.54,7.29-.81,10.94-.08,1.03.58,2.14,1.7,2.24,1.02.09,2.16-.59,2.24-1.7.27-3.65.54-7.29.81-10.94.08-1.03-.58-2.14-1.7-2.24-1.02-.09-2.16.59-2.24,1.7h0Z"/>
          <path d="M1585.44,1730.68c-1.04,4.23-2.08,8.46-3.12,12.69-.25,1.01.71,2.15,1.7,2.24,1.17.11,1.97-.61,2.24-1.7,1.04-4.23,2.08-8.46,3.12-12.69.25-1.01-.71-2.15-1.7-2.24-1.17-.11-1.97.61-2.24,1.7h0Z"/>
          <path d="M1566.35,1759.13c-.49,5.23-.97,10.45-1.46,15.68-.1,1.07.6,2.09,1.7,2.24,1.03.14,2.14-.63,2.24-1.7.49-5.23.97-10.45,1.46-15.68.1-1.07-.6-2.09-1.7-2.24-1.03-.14-2.14.63-2.24,1.7h0Z"/>
          <path class="cls-3" d="M1669.52,2391.29c-14.83,108.27-99.93,143.5-197.13,130.19-97.2-13.32-169.69-70.13-154.86-178.41,14.83-108.27,111.37-227,208.57-213.69,97.2,13.32,158.25,153.63,143.42,261.91Z"/>
          <g>
            <g>
              <path class="cls-9" d="M1790.63,2231.28c-31.96-82.96-63.04-144.45-100.04-145.69-43.8-1.48-24.22,38.61-24.22,38.61,0,0-65.51,22.26-61.04,77.86,2.89,35.91,23.62,66.63,85.32,141.57"/>
              <path d="M1689.58,2351.51c-1.91-.26-3.73-1.22-5.06-2.82-62.67-76.12-84.04-107.89-87.11-145.98-3.55-44.16,33.4-71.92,58.77-83.04-2.31-7.78-4.08-19.66,2.13-29.24,5.84-9.01,16.79-13.3,32.56-12.77,43.41,1.46,76.53,71.19,107.19,150.78,1.58,4.1-.46,8.7-4.56,10.28-4.1,1.59-8.7-.47-10.28-4.56-36.32-94.28-64.93-139.68-92.89-140.61-6.73-.23-15.43.55-18.66,5.51-4.02,6.17.1,18.02,1.87,21.68.99,2.05,1.05,4.44.17,6.54-.88,2.1-2.61,3.73-4.77,4.46-2.43.83-59.59,21.02-55.68,69.7,2.72,33.85,23.25,63.93,83.54,137.16,2.79,3.39,2.31,8.4-1.09,11.19-1.78,1.47-4.01,2.03-6.13,1.74Z"/>
            </g>
            <path d="M1629.53,2148.55c2.96,4.58,5.91,9.17,8.87,13.75.79,1.23,2.54,2.11,3.94,2.3,1.45.2,3.27-.21,4.41-1.16,1.19-.98,2.16-2.36,2.3-3.94.15-1.64-.26-3.02-1.16-4.41-2.96-4.58-5.91-9.17-8.87-13.75-.79-1.23-2.54-2.11-3.94-2.3-1.45-.2-3.27.21-4.41,1.16-1.19.98-2.16,2.36-2.3,3.94-.15,1.64.26,3.02,1.16,4.41h0Z"/>
            <path d="M1661.01,2121.98c2.36,4.92,4.73,9.83,7.09,14.75.67,1.4,1.7,2.57,3.16,3.2,1.36.58,3.27.67,4.63.03,1.37-.64,2.65-1.7,3.2-3.16.55-1.45.72-3.19.03-4.63-2.36-4.92-4.73-9.83-7.09-14.75-.67-1.4-1.7-2.57-3.16-3.2-1.36-.58-3.27-.67-4.63-.03-1.37.64-2.65,1.7-3.2,3.16-.55,1.45-.72,3.19-.03,4.63h0Z"/>
          </g>
          <path d="M1543.74,1967.54c-1.25,10.13-2.48,20.27-3.75,30.4-.51,4.08-1,8.41-3.06,12.06-1.14,2.01-3,4.2-5.39,4.66-2.15.41-4.12-.82-4.13-3.08,0-2.55-3.95-2-3.94.53.02,4.76,5.09,7.43,9.33,6.31,5.16-1.36,8.18-6.54,9.56-11.33,1.67-5.78,1.99-11.98,2.72-17.92.87-7.03,1.73-14.06,2.6-21.09.31-2.54-3.62-3.08-3.94-.54h0Z"/>
          <path d="M1544.58,1967.66c-1.03,6.84-2.06,13.68-3.09,20.52-.92,6.08-2.32,12.31-2.27,18.48.04,4.93,1.5,10.57,5.94,13.36,3.79,2.38,9.58,1.25,10.91-3.44.69-2.43-2.96-4.02-3.65-1.57-.62,2.18-2.85,2.83-4.81,1.86-2.18-1.08-3.39-3.7-3.94-5.94-1.01-4.07-.31-8.37.29-12.44,1.5-10.1,3.04-20.19,4.56-30.29.38-2.53-3.56-3.07-3.94-.54h0Z"/>
          <path class="cls-3" d="M1796.27,2011c-.92,6.69-17.23,9.99-36.44,7.36-19.21-2.63-34.04-10.19-33.12-16.89s17.23-9.99,36.44-7.36c19.21,2.63,34.04,10.19,33.12,16.89Z"/>
          <ellipse class="cls-3" cx="1331.42" cy="1950.81" rx="12.23" ry="35.1" transform="translate(-782.04 3005.14) rotate(-82.2)"/>
        </g>
      </g>
    </g>
    <path id="Line" d="M369.76,2345.7c88.68,4.97,177.35,5.63,266.01,5.47l266-1.5c177.33-.69,354.66-1.53,532.01,4.05,88.68,4.09,177.34,2.85,266,1.2,88.66-1.85,177.33-1.21,266-1.11,177.33.38,354.67,2.6,532.01,4.84l532.01,5.92,532,1.83c177.34.86,354.67-.05,532.01,3.94l133,2.35,133,.42c44.33-.21,88.66-1.06,132.99-2.76,44.33-1.5,88.66-4.32,132.98-8.34,6.17-.56,11.43,9.1,11.75,21.58.32,12.48-4.42,23.04-10.59,23.6-.35.03-.72.03-1.06,0-44.34-4.53-88.68-7.86-133.02-9.86-44.34-2.21-88.67-3.57-133.01-4.29l-133-1.11-133,.82c-177.33,1.96-354.67-.99-532-2.16l-532.01-4.27-532-.18c-177.33.2-354.67.4-532-1.26-88.67-.91-177.34-1.29-266.01-4.16-88.67-2.66-177.34-4.92-266-1.85-177.33,3.55-354.67.68-532-2.05l-266.01-4.54c-88.67-1.18-177.34-1.54-266,2.42-3.96.18-7.26-6.17-7.38-14.18-.12-8.01,3-14.64,6.96-14.82.11,0,.25,0,.36,0Z"/>
    <g id="Bear_Hands">
      <g>
        <g>
          <path class="cls-11" d="M3087.64,2408.99c-28.86,0-57.74-3.34-73.57-8.5-11.8-3.85-19.85-14.16-22.09-28.3-2.97-18.79,4.77-45.56,28.76-63.01,13.89-10.1,28.24-15.01,43.88-15.01,17.16,0,34.02,5.81,51.87,11.96l7.59,2.6c50.63,17.13,52.52,32.23,52.21,67.77-.26,28.27-55.65,32.49-88.66,32.49h0Z"/>
          <path d="M3064.63,2301.05c18.3,0,36.64,7.22,57.26,14.2,47.82,16.18,47.82,28.82,47.53,61.18-.17,18.8-40.92,25.67-81.78,25.67-28.2,0-56.45-3.28-71.43-8.16-25.79-8.41-24.55-55.1,8.6-79.2,13.79-10.03,26.8-13.69,39.83-13.69M3064.63,2287.29c-17.14,0-32.82,5.34-47.92,16.32-26.35,19.16-34.81,48.79-31.52,69.64,2.65,16.78,12.4,29.09,26.75,33.77,16.46,5.37,46.18,8.84,75.7,8.84,43.43,0,95.25-6.82,95.54-39.31.33-37.1-1.95-55.75-56.88-74.34-2.55-.86-5.07-1.73-7.55-2.59-18.41-6.34-35.8-12.34-54.12-12.34h0Z"/>
        </g>
        <path d="M3040.02,2406.28c7.3.8,14.58-4.53,16.39-11.55-2.25-.3-4.51-.61-6.76-.91-.46,4.18-.98,9.75,2.33,13,2.16,2.11,5.15,2.28,7.86,3.22,1.7.59,3.84-.67,4.23-2.4.44-1.92-.58-3.6-2.4-4.23-1.11-.39-2.26-.63-3.4-.93-.25-.07-.5-.13-.75-.21-.12-.04-.24-.08-.36-.12-.4-.12-.23-.3.37.17-.17-.13-.44-.22-.63-.32-.08-.04-.21-.18-.29-.19.6.13.65.58.33.24-.08-.08-.17-.19-.25-.26-.39-.3.47.77.23.3-.09-.18-.26-.57-.4-.71.16.16.3.88.12.26-.05-.16-.1-.31-.14-.48-.04-.14-.13-1.04-.22-1.1.15.09.1.89.03.07-.02-.23-.03-.47-.04-.7-.02-.48-.02-.97-.01-1.45.02-1.39.15-2.77.3-4.15.19-1.69-1.45-3.17-2.98-3.38-1.65-.22-3.34.8-3.77,2.46-.1.37-.21.74-.33,1.1-.28.86.32-.56-.1.24-.31.6-.65,1.16-1.03,1.72.42-.61-.06.07-.18.2-.25.29-.52.57-.8.83-.21.2-.43.39-.65.58-.3.25-.3.24.01,0-.12.09-.24.17-.36.25-.52.35-1.07.65-1.63.93-.36.16-.35.16.03,0-.18.07-.36.14-.54.2-.27.09-.55.18-.82.25-.28.07-.56.12-.84.19-.4.07-.38.07.06,0-.19.02-.38.04-.57.05-.67.04-1.34.02-2.01-.06-1.8-.2-3.52,1.72-3.44,3.44.09,2.03,1.52,3.23,3.44,3.44h0Z"/>
        <path d="M3098.98,2410.03c7.13-1.54,12.98-7.16,15.05-14.11-2.21-.61-4.42-1.22-6.64-1.83-1.16,4.19.04,9.08,3.34,12.01,3.26,2.9,8.14,3.98,12.24,2.3,1.72-.7,2.94-2.29,2.4-4.23-.45-1.63-2.5-3.11-4.23-2.4-.33.13-.65.26-.99.35-.02,0-1.08.23-.46.14-.35.05-.7.05-1.05.05-.08,0-.95-.08-.59-.03-.79-.11-1.9-.55-2.45-1.04-.26-.24-.51-.48-.74-.75.28.34-.1-.16-.19-.29-.16-.25-.3-.5-.43-.77.24.49-.13-.37-.17-.49-.37-1.21-.39-1.76-.04-3.02.5-1.79-.61-3.74-2.4-4.23-1.83-.5-3.7.62-4.23,2.4-.1.33-.22.66-.32.99-.22.71.11-.15-.18.46-.3.63-.62,1.24-.99,1.83-.19.29-.38.58-.58.87-.6.85.38-.38-.32.4-.46.52-.93,1.03-1.44,1.51-.65.6-.61.58-1.2.99-.57.4-1.17.76-1.78,1.08-.98.51-1.93.85-3.42,1.17-1.82.39-2.88,2.51-2.4,4.23.52,1.88,2.41,2.8,4.23,2.4h0Z"/>
      </g>
      <g>
        <g>
          <path class="cls-11" d="M2551.91,2408.99c28.86,0,57.74-3.34,73.57-8.5,11.8-3.85,19.85-14.16,22.09-28.3,2.97-18.79-4.77-45.56-28.76-63.01-13.89-10.1-28.24-15.01-43.88-15.01-17.16,0-34.02,5.81-51.87,11.96l-7.59,2.6c-50.63,17.13-52.52,32.23-52.21,67.77.26,28.27,55.65,32.49,88.66,32.49h0Z"/>
          <path d="M2574.91,2301.05c13.03,0,26.04,3.66,39.83,13.69,33.14,24.1,34.38,70.79,8.6,79.2-14.98,4.89-43.23,8.16-71.43,8.16-40.86,0-81.61-6.87-81.78-25.67-.29-32.36-.29-45,47.53-61.18,20.62-6.98,38.96-14.2,57.26-14.2M2574.91,2287.29c-18.31,0-35.7,5.99-54.12,12.34-2.48.86-5,1.72-7.55,2.59-54.93,18.59-57.21,37.25-56.88,74.34.29,32.49,52.12,39.31,95.54,39.31,29.52,0,59.24-3.47,75.7-8.84,14.35-4.68,24.1-16.99,26.75-33.77,3.3-20.86-5.17-50.48-31.52-69.64-15.1-10.98-30.78-16.32-47.92-16.32h0Z"/>
        </g>
        <path d="M2599.53,2406.28c-7.3.8-14.58-4.53-16.39-11.55,2.25-.3,4.51-.61,6.76-.91.46,4.18.98,9.75-2.33,13-2.16,2.11-5.15,2.28-7.86,3.22-1.7.59-3.84-.67-4.23-2.4-.44-1.92.58-3.6,2.4-4.23,1.11-.39,2.26-.63,3.4-.93.25-.07.5-.13.75-.21.12-.04.24-.08.36-.12.4-.12.23-.3-.37.17.17-.13.44-.22.63-.32.08-.04.21-.18.29-.19-.6.13-.65.58-.33.24.08-.08.17-.19.25-.26.39-.3-.47.77-.23.3.09-.18.26-.57.4-.71-.16.16-.3.88-.12.26.05-.16.1-.31.14-.48.04-.14.13-1.04.22-1.1-.15.09-.1.89-.03.07.02-.23.03-.47.04-.7.02-.48.02-.97.01-1.45-.02-1.39-.15-2.77-.3-4.15-.19-1.69,1.45-3.17,2.98-3.38,1.65-.22,3.34.8,3.77,2.46.1.37.21.74.33,1.1.28.86-.32-.56.1.24.31.6.65,1.16,1.03,1.72-.42-.61.06.07.18.2.25.29.52.57.8.83.21.2.43.39.65.58.3.25.3.24-.01,0,.12.09.24.17.36.25.52.35,1.07.65,1.63.93.36.16.35.16-.03,0,.18.07.36.14.54.2.27.09.55.18.82.25.28.07.56.12.84.19.4.07.38.07-.06,0,.19.02.38.04.57.05.67.04,1.34.02,2.01-.06,1.8-.2,3.52,1.72,3.44,3.44-.09,2.03-1.52,3.23-3.44,3.44h0Z"/>
        <path d="M2540.56,2410.03c-7.13-1.54-12.98-7.16-15.05-14.11,2.21-.61,4.42-1.22,6.64-1.83,1.16,4.19-.04,9.08-3.34,12.01-3.26,2.9-8.14,3.98-12.24,2.3-1.72-.7-2.94-2.29-2.4-4.23.45-1.63,2.5-3.11,4.23-2.4.33.13.65.26.99.35.02,0,1.08.23.46.14.35.05.7.05,1.05.05.08,0,.95-.08.59-.03.79-.11,1.9-.55,2.45-1.04.26-.24.51-.48.74-.75-.28.34.1-.16.19-.29.16-.25.3-.5.43-.77-.24.49.13-.37.17-.49.37-1.21.39-1.76.04-3.02-.5-1.79.61-3.74,2.4-4.23,1.83-.5,3.7.62,4.23,2.4.1.33.22.66.32.99.22.71-.11-.15.18.46.3.63.62,1.24.99,1.83.19.29.38.58.58.87.6.85-.38-.38.32.4.46.52.93,1.03,1.44,1.51.65.6.61.58,1.2.99.57.4,1.17.76,1.78,1.08.98.51,1.93.85,3.42,1.17,1.82.39,2.88,2.51,2.4,4.23-.52,1.88-2.41,2.8-4.23,2.4h0Z"/>
      </g>
    </g>
    <g id="Heart">
      <g>
        <path class="cls-2" d="M2876.55,1602.4c-1.88,0-4.06-.92-5.36-2.29-1.04-1.09-2.24-3.02-2.1-6.03.21-4.15.04-16.34-.44-33.76-15.58-6.66-34.71-17.71-40.77-38.12-7.01-23.67,4.41-145.18,32.01-165.59,19.06-14.1,63.7-15.62,82.01-15.62,23.54,0,47.24,2.28,63.39,6.11,65.95,15.61,102.96,45.67,98.98,80.42-5.44,47.59-28.16,124.83-61.66,147.52-4.1,2.78-12.7,6.48-39.75,6.48,0,0,0,0,0,0-30.1,0-71.61-4.69-96.99-9.5-22.52,30.38-25.54,30.38-29.33,30.38Z"/>
        <path d="M2941.91,1347.88c23.04,0,45.98,2.18,61.8,5.92,56.16,13.29,97.61,39.05,93.73,72.94-5.62,49.14-28.82,122.38-58.69,142.61-5.64,3.82-19.16,5.29-35.9,5.29-32.58,0-77.34-5.57-99.93-10.22-9.24,12.58-23.34,31.09-26.38,31.09-.41,0-.62-.34-.58-1.09.32-6.39-.22-27.11-.57-38.76-17.8-7.09-35.51-17.15-40.92-35.42-7.1-23.98,6.13-140.82,29.5-158.1,13.6-10.06,45.86-14.27,77.92-14.27M2941.91,1334.12c-23.59,0-66.14,2.2-86.11,16.97-30.43,22.5-42.58,145.85-34.52,173.08,6.31,21.31,24.55,33.3,40.6,40.7.39,14.77.51,25.31.33,28.89-.21,4.24,1.2,8.19,3.98,11.11,2.68,2.81,6.45,4.42,10.35,4.42,7.22,0,11.98-2.58,32.29-29.72,25.93,4.59,65.14,8.85,94.02,8.85s38.35-4.09,43.62-7.66c35.3-23.91,59.05-103.54,64.64-152.44,4.47-39.13-33.52-71.17-104.24-87.9-16.89-4-40.58-6.29-64.97-6.29h0Z"/>
      </g>
      <path class="cls-8" d="M2934.67,1532.87c-7.18-22.73-22.08-59.22-26.73-82.6-3.18-15.98-5.61-33.33,1.59-47.95,4.48-9.1,12.57-16.26,22.7-16.81,14.14-.77,28.03,24.3,29.12,43.11,14.65-19.53,35.44-27.57,57.4-16.9,4.28,2.08,8.41,4.86,10.91,8.91,3.42,5.54,3.29,12.67,1.31,18.87-3.21,10.07-10.69,18.17-18.45,25.34-24.61,22.78-53.67,47.19-77.86,68.02h0Z"/>
    </g>
    <g id="Hi">
      <g>
        <path class="cls-2" d="M1614.47,1503.2c-3.69,0-6.94-2.35-8.27-5.99-1.06-2.89-4.77-11.12-10.31-22.89-.59,0-1.18.01-1.77.01-13.73,0-33.4-1.58-45.74-15.29-14.27-15.84-43.99-110.63-25.58-136.45,17.41-24.41,90.57-50.5,123.02-56.01,16.26-2.75,31.39-4.15,44.97-4.15,48.79,0,64.05,17.64,68.27,32.44,10.67,37.5,15.72,103.19-6.49,131.81-13.17,16.97-90.99,37.6-118.78,43.64-9.85,30.2-12.95,32.87-19.31,32.87h-.02Z"/>
        <path d="M1690.79,1270.58c31.79,0,55.18,8.03,60.44,26.54,10.83,38.06,14.2,99.74-5.09,124.59-10.74,13.84-86.92,35.42-118.64,41.63-4.06,12.7-10.56,31.73-13.03,31.73-.26,0-.47-.21-.64-.65-1.76-4.81-8.84-19.9-12.85-28.36-2.28.09-4.57.15-6.86.15-15.39,0-30.57-2.46-39.7-12.6-13.77-15.3-39.64-105.76-25.01-126.28,14.63-20.52,82.29-46.69,117.76-52.7,15.53-2.63,30.31-4.04,43.61-4.04M1690.79,1254.31c-14.03,0-29.62,1.44-46.33,4.27-34.49,5.85-109.39,32.8-128.29,59.3-9.54,13.38-9.79,39.71-.74,78.26,4.54,19.33,15.31,55.47,26.9,68.35,14.46,16.06,37.38,17.78,48.39,17.96,4.76,10.21,7.17,15.73,7.84,17.57,2.52,6.88,8.77,11.32,15.91,11.32,12.74,0,17.7-10,25.66-34.18,27.05-6.31,103.45-25.62,118.86-45.48,25.29-32.59,18.26-102.57,7.88-139.02-4.98-17.5-22.22-38.35-76.09-38.35h0Z"/>
      </g>
      <g>
        <path d="M1587.9,1316.21c6.82,37.71,14.92,75.12,24.32,112.27,1.65,6.53,11.92,4.28,10.25-2.3-9.4-37.15-17.5-74.56-24.32-112.27-1.2-6.65-11.45-4.35-10.25,2.3h0Z"/>
        <path d="M1610.33,1374.43c7.65-1.53,15.29-3.06,22.94-4.58,6.62-1.32,4.34-11.58-2.3-10.25-7.65,1.53-15.29,3.06-22.94,4.58-6.62,1.32-4.34,11.58,2.3,10.25h0Z"/>
        <path d="M1619.44,1303.53c7.68,41.77,14.3,83.68,19.87,125.78.89,6.69,11.13,4.37,10.25-2.3-5.57-42.1-12.19-84.02-19.87-125.78-1.22-6.65-11.47-4.35-10.25,2.3h0Z"/>
        <path d="M1660.47,1348.5c5.71,23.77,11.42,47.55,17.13,71.32,1.58,6.56,11.84,4.29,10.25-2.3-5.71-23.77-11.42-47.55-17.13-71.32-1.58-6.56-11.84-4.29-10.25,2.3h0Z"/>
        <path d="M1663.33,1325.49c6.75.32,7.27-10.17.5-10.49-6.75-.32-7.27,10.17-.5,10.49h0Z"/>
      </g>
    </g>
  </g>
</svg>